<svg width="237" height="32" viewBox="0 0 237 32" fill="none" xmlns="http://www.w3.org/2000/svg">
<g clip-path="url(#clip0_101_37)">
<path fill-rule="evenodd" clip-rule="evenodd" d="M72.6161 0.553711H45.0384C43.0508 0.553711 41.498 2.15372 41.498 4.06141V23.5076C41.498 25.4153 43.113 27.0153 45.0384 27.0153H64.9142L71.1254 31.8153V27.0153H72.6161C74.5415 27.0153 76.1564 25.4153 76.1564 23.5076V4.06141C76.1564 2.15372 74.5415 0.553711 72.6161 0.553711ZM47.3387 9.72283V18.2151C47.3387 18.3997 47.4008 18.5844 47.4629 18.7074C47.6492 18.8305 47.7735 18.8921 47.9598 18.8921H49.202C49.3884 18.8921 49.5747 18.8305 49.6989 18.7074C49.8231 18.5844 49.8853 18.3997 49.8853 18.2151V11.5074L52.3076 18.2151C52.3262 18.2427 52.3433 18.2689 52.3597 18.2939C52.4531 18.4365 52.5218 18.5412 52.6803 18.6459C52.8045 18.769 52.9908 18.8305 53.1772 18.8305H54.171C54.3573 18.8305 54.4815 18.769 54.6679 18.6459C54.7921 18.5228 54.9163 18.3997 54.9784 18.2151L57.4008 11.5074V18.2151C57.4008 18.3997 57.4629 18.5844 57.5871 18.7074C57.7735 18.8305 57.8977 18.8921 58.084 18.8921H59.3263C59.5126 18.8921 59.6989 18.8305 59.8232 18.7074C59.9474 18.5844 60.0095 18.3997 60.0095 18.2151V9.72283C60.0095 9.53821 59.9474 9.35359 59.8232 9.23052C59.6989 9.10744 59.5747 9.0459 59.3884 9.0459H56.5312C56.3449 9.0459 56.2207 9.10744 56.0343 9.23052L56.0343 9.23052C55.9101 9.3536 55.7859 9.47667 55.7238 9.66128L53.6741 15.5074L51.6244 9.66128C51.6146 9.6418 51.6047 9.62077 51.5944 9.59869C51.5395 9.4813 51.4707 9.33411 51.3138 9.23052C51.1896 9.10744 51.0033 9.0459 50.8169 9.0459H47.9598C47.7735 9.0459 47.6492 9.10744 47.525 9.23052C47.4008 9.35359 47.3387 9.53821 47.3387 9.72283ZM61.4381 9.10744C61.3138 9.10744 61.1896 9.16898 61.1275 9.29206C61.1275 9.31815 61.1275 9.33318 61.1228 9.34653C61.1163 9.36466 61.1012 9.37969 61.0654 9.41513C61.0654 9.47667 61.1275 9.59975 61.1896 9.72283L64.8542 15.3844V18.2767C64.8542 18.4613 64.9163 18.5844 65.0405 18.7074C65.1648 18.8305 65.289 18.8921 65.4753 18.8921H66.7797C66.966 18.8921 67.0902 18.8305 67.2145 18.7074C67.3387 18.5844 67.4008 18.4613 67.4008 18.2767V15.3844L71.0654 9.72283C71.082 9.68984 71.0987 9.66128 71.1141 9.63477C71.1563 9.56235 71.1896 9.50523 71.1896 9.41513V9.29206C71.1896 9.16898 71.0654 9.10744 70.8791 9.10744H69.5747C69.0778 9.16898 68.7051 9.35359 68.3946 9.78436L66.1586 13.169L63.9225 9.78436C63.6741 9.35359 63.2393 9.10744 62.7424 9.10744H61.4381Z" fill="#37ABFF"/>
</g>
<path d="M86.386 19C86.2927 19 86.2087 18.9673 86.134 18.902C86.0687 18.8367 86.036 18.7527 86.036 18.65V9.55C86.036 9.44733 86.0687 9.36333 86.134 9.298C86.2087 9.23267 86.2927 9.2 86.386 9.2H87.688C87.828 9.2 87.9307 9.23733 87.996 9.312C88.0707 9.38667 88.122 9.44267 88.15 9.48L90.726 14.226L93.33 9.48C93.3487 9.44267 93.3907 9.38667 93.456 9.312C93.5307 9.23733 93.638 9.2 93.778 9.2H95.08C95.1827 9.2 95.2667 9.23267 95.332 9.298C95.3973 9.36333 95.43 9.44733 95.43 9.55V18.65C95.43 18.7527 95.3973 18.8367 95.332 18.902C95.2667 18.9673 95.1827 19 95.08 19H93.652C93.5587 19 93.4793 18.9673 93.414 18.902C93.3487 18.8367 93.316 18.7527 93.316 18.65V12.994L91.538 16.326C91.4913 16.41 91.4307 16.4847 91.356 16.55C91.2813 16.6153 91.1833 16.648 91.062 16.648H90.404C90.2827 16.648 90.1847 16.6153 90.11 16.55C90.0353 16.4847 89.9747 16.41 89.928 16.326L88.15 12.994V18.65C88.15 18.7527 88.1173 18.8367 88.052 18.902C87.9867 18.9673 87.9073 19 87.814 19H86.386ZM98.6827 21.66C98.608 21.66 98.538 21.632 98.4727 21.576C98.4167 21.52 98.3887 21.45 98.3887 21.366C98.3887 21.3473 98.3934 21.3193 98.4027 21.282C98.412 21.254 98.426 21.2167 98.4447 21.17L99.5367 18.552L96.8487 12.21C96.8207 12.1353 96.8067 12.0747 96.8067 12.028C96.816 11.944 96.8487 11.874 96.9047 11.818C96.9607 11.7527 97.0307 11.72 97.1147 11.72H98.4727C98.594 11.72 98.6827 11.7527 98.7387 11.818C98.7947 11.874 98.8367 11.9347 98.8647 12L100.601 16.34L102.379 12C102.416 11.9253 102.463 11.86 102.519 11.804C102.575 11.748 102.663 11.72 102.785 11.72H104.115C104.199 11.72 104.269 11.7527 104.325 11.818C104.39 11.874 104.423 11.9393 104.423 12.014C104.423 12.0607 104.404 12.126 104.367 12.21L100.405 21.38C100.377 21.4547 100.33 21.52 100.265 21.576C100.209 21.632 100.12 21.66 99.9987 21.66H98.6827ZM106.046 19C105.943 19 105.859 18.9673 105.794 18.902C105.729 18.8367 105.696 18.7527 105.696 18.65V9.55C105.696 9.44733 105.729 9.36333 105.794 9.298C105.859 9.23267 105.943 9.2 106.046 9.2H109.756C110.923 9.2 111.842 9.47067 112.514 10.012C113.186 10.544 113.522 11.314 113.522 12.322C113.522 13.0033 113.359 13.5727 113.032 14.03C112.705 14.4873 112.267 14.828 111.716 15.052L113.69 18.552C113.718 18.608 113.732 18.6593 113.732 18.706C113.732 18.7807 113.704 18.8507 113.648 18.916C113.592 18.972 113.522 19 113.438 19H111.884C111.716 19 111.59 18.958 111.506 18.874C111.422 18.7807 111.361 18.6967 111.324 18.622L109.616 15.416H107.922V18.65C107.922 18.7527 107.889 18.8367 107.824 18.902C107.759 18.9673 107.675 19 107.572 19H106.046ZM107.922 13.638H109.714C110.227 13.638 110.605 13.5213 110.848 13.288C111.1 13.0547 111.226 12.728 111.226 12.308C111.226 11.888 111.105 11.5567 110.862 11.314C110.619 11.0713 110.237 10.95 109.714 10.95H107.922V13.638ZM118.237 19.14C117.164 19.14 116.31 18.8413 115.675 18.244C115.05 17.6467 114.719 16.7787 114.681 15.64C114.681 15.5653 114.681 15.4673 114.681 15.346C114.681 15.2153 114.681 15.1127 114.681 15.038C114.719 14.3193 114.882 13.7033 115.171 13.19C115.461 12.6673 115.867 12.2707 116.389 12C116.912 11.72 117.523 11.58 118.223 11.58C119.007 11.58 119.661 11.7433 120.183 12.07C120.715 12.3873 121.112 12.826 121.373 13.386C121.644 13.9367 121.779 14.5713 121.779 15.29V15.612C121.779 15.7053 121.742 15.7847 121.667 15.85C121.602 15.9153 121.523 15.948 121.429 15.948H116.851C116.851 15.9573 116.851 15.976 116.851 16.004C116.851 16.0227 116.851 16.0413 116.851 16.06C116.861 16.3587 116.917 16.634 117.019 16.886C117.131 17.1287 117.285 17.3247 117.481 17.474C117.687 17.6233 117.929 17.698 118.209 17.698C118.443 17.698 118.634 17.6653 118.783 17.6C118.933 17.5347 119.054 17.4553 119.147 17.362C119.25 17.2687 119.325 17.1893 119.371 17.124C119.455 17.0307 119.521 16.9747 119.567 16.956C119.623 16.928 119.707 16.914 119.819 16.914H121.275C121.369 16.914 121.443 16.942 121.499 16.998C121.565 17.0447 121.593 17.1147 121.583 17.208C121.574 17.3573 121.495 17.544 121.345 17.768C121.205 17.9827 120.995 18.1973 120.715 18.412C120.435 18.6173 120.085 18.79 119.665 18.93C119.255 19.07 118.779 19.14 118.237 19.14ZM116.851 14.674H119.595V14.646C119.595 14.31 119.539 14.0207 119.427 13.778C119.325 13.526 119.171 13.33 118.965 13.19C118.76 13.05 118.513 12.98 118.223 12.98C117.934 12.98 117.687 13.05 117.481 13.19C117.276 13.33 117.117 13.526 117.005 13.778C116.903 14.0207 116.851 14.31 116.851 14.646V14.674ZM126.049 19.14C125.47 19.14 124.971 19.0747 124.551 18.944C124.14 18.804 123.804 18.636 123.543 18.44C123.291 18.244 123.1 18.048 122.969 17.852C122.848 17.6467 122.782 17.474 122.773 17.334C122.764 17.2313 122.796 17.1473 122.871 17.082C122.946 17.0167 123.02 16.984 123.095 16.984H124.453C124.481 16.984 124.509 16.9887 124.537 16.998C124.565 17.0073 124.593 17.0307 124.621 17.068C124.742 17.152 124.868 17.25 124.999 17.362C125.13 17.4647 125.279 17.5533 125.447 17.628C125.624 17.7027 125.844 17.74 126.105 17.74C126.413 17.74 126.674 17.6793 126.889 17.558C127.104 17.4273 127.211 17.2453 127.211 17.012C127.211 16.844 127.16 16.704 127.057 16.592C126.964 16.48 126.782 16.3773 126.511 16.284C126.24 16.1907 125.839 16.088 125.307 15.976C124.803 15.864 124.374 15.7147 124.019 15.528C123.664 15.3413 123.398 15.108 123.221 14.828C123.044 14.5387 122.955 14.1933 122.955 13.792C122.955 13.428 123.067 13.078 123.291 12.742C123.524 12.406 123.865 12.1307 124.313 11.916C124.761 11.692 125.321 11.58 125.993 11.58C126.506 11.58 126.954 11.6453 127.337 11.776C127.729 11.8973 128.056 12.056 128.317 12.252C128.578 12.4387 128.774 12.6347 128.905 12.84C129.045 13.036 129.12 13.2087 129.129 13.358C129.138 13.4513 129.11 13.5307 129.045 13.596C128.98 13.6613 128.905 13.694 128.821 13.694H127.575C127.528 13.694 127.486 13.6893 127.449 13.68C127.412 13.6613 127.379 13.638 127.351 13.61C127.239 13.5353 127.122 13.4513 127.001 13.358C126.889 13.2553 126.754 13.1667 126.595 13.092C126.436 13.0173 126.231 12.98 125.979 12.98C125.671 12.98 125.433 13.05 125.265 13.19C125.106 13.3207 125.027 13.4887 125.027 13.694C125.027 13.8247 125.069 13.946 125.153 14.058C125.237 14.17 125.41 14.2727 125.671 14.366C125.932 14.4593 126.329 14.5573 126.861 14.66C127.496 14.772 128 14.94 128.373 15.164C128.746 15.388 129.012 15.6493 129.171 15.948C129.339 16.2373 129.423 16.55 129.423 16.886C129.423 17.3247 129.292 17.7167 129.031 18.062C128.77 18.398 128.387 18.664 127.883 18.86C127.388 19.0467 126.777 19.14 126.049 19.14ZM133.441 19.14C132.899 19.14 132.419 19.0187 131.999 18.776C131.588 18.524 131.266 18.1647 131.033 17.698C130.809 17.222 130.697 16.648 130.697 15.976V12.07C130.697 11.9673 130.729 11.8833 130.795 11.818C130.86 11.7527 130.939 11.72 131.033 11.72H132.517C132.619 11.72 132.703 11.7527 132.769 11.818C132.834 11.8833 132.867 11.9673 132.867 12.07V15.892C132.867 16.9373 133.324 17.46 134.239 17.46C134.677 17.46 135.023 17.3247 135.275 17.054C135.536 16.774 135.667 16.3867 135.667 15.892V12.07C135.667 11.9673 135.699 11.8833 135.765 11.818C135.83 11.7527 135.914 11.72 136.017 11.72H137.501C137.594 11.72 137.673 11.7527 137.739 11.818C137.804 11.8833 137.837 11.9673 137.837 12.07V18.65C137.837 18.7527 137.804 18.8367 137.739 18.902C137.673 18.9673 137.594 19 137.501 19H136.129C136.026 19 135.942 18.9673 135.877 18.902C135.811 18.8367 135.779 18.7527 135.779 18.65V18.104C135.536 18.44 135.223 18.6967 134.841 18.874C134.458 19.0513 133.991 19.14 133.441 19.14ZM139.935 19C139.841 19 139.762 18.9673 139.697 18.902C139.631 18.8367 139.599 18.7527 139.599 18.65V12.07C139.599 11.9673 139.631 11.8833 139.697 11.818C139.762 11.7527 139.841 11.72 139.935 11.72H141.237C141.33 11.72 141.409 11.7527 141.475 11.818C141.549 11.8833 141.587 11.9673 141.587 12.07V12.546C141.773 12.2847 142.03 12.0607 142.357 11.874C142.693 11.6873 143.089 11.5893 143.547 11.58C144.629 11.5613 145.371 11.972 145.773 12.812C145.987 12.448 146.295 12.154 146.697 11.93C147.107 11.6967 147.555 11.58 148.041 11.58C148.526 11.58 148.965 11.692 149.357 11.916C149.749 12.1307 150.057 12.4667 150.281 12.924C150.514 13.372 150.631 13.9507 150.631 14.66V18.65C150.631 18.7527 150.598 18.8367 150.533 18.902C150.467 18.9673 150.388 19 150.295 19H148.909C148.815 19 148.736 18.9673 148.671 18.902C148.605 18.8367 148.573 18.7527 148.573 18.65V14.772C148.573 14.3893 148.517 14.0907 148.405 13.876C148.293 13.652 148.143 13.4933 147.957 13.4C147.779 13.3067 147.579 13.26 147.355 13.26C147.159 13.26 146.967 13.3067 146.781 13.4C146.603 13.4933 146.454 13.652 146.333 13.876C146.221 14.0907 146.165 14.3893 146.165 14.772V18.65C146.165 18.7527 146.132 18.8367 146.067 18.902C146.001 18.9673 145.917 19 145.815 19H144.443C144.34 19 144.256 18.9673 144.191 18.902C144.125 18.8367 144.093 18.7527 144.093 18.65V14.772C144.093 14.3893 144.037 14.0907 143.925 13.876C143.813 13.652 143.663 13.4933 143.477 13.4C143.299 13.3067 143.103 13.26 142.889 13.26C142.693 13.26 142.501 13.3113 142.315 13.414C142.128 13.5073 141.974 13.6613 141.853 13.876C141.741 14.0907 141.685 14.3847 141.685 14.758V18.65C141.685 18.7527 141.652 18.8367 141.587 18.902C141.521 18.9673 141.442 19 141.349 19H139.935ZM155.575 19.14C154.502 19.14 153.648 18.8413 153.013 18.244C152.388 17.6467 152.057 16.7787 152.019 15.64C152.019 15.5653 152.019 15.4673 152.019 15.346C152.019 15.2153 152.019 15.1127 152.019 15.038C152.057 14.3193 152.22 13.7033 152.509 13.19C152.799 12.6673 153.205 12.2707 153.727 12C154.25 11.72 154.861 11.58 155.561 11.58C156.345 11.58 156.999 11.7433 157.521 12.07C158.053 12.3873 158.45 12.826 158.711 13.386C158.982 13.9367 159.117 14.5713 159.117 15.29V15.612C159.117 15.7053 159.08 15.7847 159.005 15.85C158.94 15.9153 158.861 15.948 158.767 15.948H154.189C154.189 15.9573 154.189 15.976 154.189 16.004C154.189 16.0227 154.189 16.0413 154.189 16.06C154.199 16.3587 154.255 16.634 154.357 16.886C154.469 17.1287 154.623 17.3247 154.819 17.474C155.025 17.6233 155.267 17.698 155.547 17.698C155.781 17.698 155.972 17.6653 156.121 17.6C156.271 17.5347 156.392 17.4553 156.485 17.362C156.588 17.2687 156.663 17.1893 156.709 17.124C156.793 17.0307 156.859 16.9747 156.905 16.956C156.961 16.928 157.045 16.914 157.157 16.914H158.613C158.707 16.914 158.781 16.942 158.837 16.998C158.903 17.0447 158.931 17.1147 158.921 17.208C158.912 17.3573 158.833 17.544 158.683 17.768C158.543 17.9827 158.333 18.1973 158.053 18.412C157.773 18.6173 157.423 18.79 157.003 18.93C156.593 19.07 156.117 19.14 155.575 19.14ZM154.189 14.674H156.933V14.646C156.933 14.31 156.877 14.0207 156.765 13.778C156.663 13.526 156.509 13.33 156.303 13.19C156.098 13.05 155.851 12.98 155.561 12.98C155.272 12.98 155.025 13.05 154.819 13.19C154.614 13.33 154.455 13.526 154.343 13.778C154.241 14.0207 154.189 14.31 154.189 14.646V14.674ZM167.653 19.14C166.775 19.14 166.029 18.9953 165.413 18.706C164.806 18.4073 164.335 17.978 163.999 17.418C163.663 16.8487 163.476 16.158 163.439 15.346C163.429 14.9633 163.425 14.5527 163.425 14.114C163.425 13.6753 163.429 13.2553 163.439 12.854C163.476 12.0513 163.663 11.37 163.999 10.81C164.344 10.2407 164.825 9.80667 165.441 9.508C166.057 9.20933 166.794 9.06 167.653 9.06C168.278 9.06 168.847 9.13933 169.361 9.298C169.874 9.45667 170.317 9.68533 170.691 9.984C171.064 10.2827 171.353 10.6327 171.559 11.034C171.764 11.4353 171.876 11.8833 171.895 12.378C171.895 12.462 171.862 12.532 171.797 12.588C171.741 12.644 171.671 12.672 171.587 12.672H169.991C169.879 12.672 169.79 12.644 169.725 12.588C169.659 12.532 169.608 12.4387 169.571 12.308C169.431 11.7573 169.197 11.3793 168.871 11.174C168.544 10.9687 168.138 10.866 167.653 10.866C167.074 10.866 166.617 11.0247 166.281 11.342C165.945 11.6593 165.763 12.1867 165.735 12.924C165.707 13.6893 165.707 14.4733 165.735 15.276C165.763 16.0133 165.945 16.5407 166.281 16.858C166.617 17.1753 167.074 17.334 167.653 17.334C168.138 17.334 168.544 17.2313 168.871 17.026C169.207 16.8113 169.44 16.4333 169.571 15.892C169.608 15.752 169.659 15.6587 169.725 15.612C169.79 15.556 169.879 15.528 169.991 15.528H171.587C171.671 15.528 171.741 15.556 171.797 15.612C171.862 15.668 171.895 15.738 171.895 15.822C171.876 16.3167 171.764 16.7647 171.559 17.166C171.353 17.5673 171.064 17.9173 170.691 18.216C170.317 18.5147 169.874 18.7433 169.361 18.902C168.847 19.0607 168.278 19.14 167.653 19.14ZM173.664 19C173.561 19 173.477 18.9673 173.412 18.902C173.346 18.8367 173.314 18.7527 173.314 18.65V9.41C173.314 9.30733 173.346 9.22333 173.412 9.158C173.477 9.09267 173.561 9.06 173.664 9.06H175.176C175.269 9.06 175.348 9.09267 175.414 9.158C175.479 9.22333 175.512 9.30733 175.512 9.41V12.56C175.764 12.2613 176.072 12.0233 176.436 11.846C176.8 11.6687 177.238 11.58 177.752 11.58C178.302 11.58 178.788 11.706 179.208 11.958C179.637 12.2007 179.973 12.56 180.216 13.036C180.458 13.5027 180.58 14.072 180.58 14.744V18.65C180.58 18.7527 180.547 18.8367 180.482 18.902C180.416 18.9673 180.332 19 180.23 19H178.704C178.61 19 178.531 18.9673 178.466 18.902C178.4 18.8367 178.368 18.7527 178.368 18.65V14.828C178.368 14.3333 178.246 13.9507 178.004 13.68C177.761 13.4 177.416 13.26 176.968 13.26C176.529 13.26 176.174 13.4 175.904 13.68C175.642 13.9507 175.512 14.3333 175.512 14.828V18.65C175.512 18.7527 175.479 18.8367 175.414 18.902C175.348 18.9673 175.269 19 175.176 19H173.664ZM184.397 19.14C183.902 19.14 183.459 19.0467 183.067 18.86C182.675 18.664 182.362 18.4027 182.129 18.076C181.896 17.7493 181.779 17.3853 181.779 16.984C181.779 16.3213 182.045 15.7987 182.577 15.416C183.118 15.0333 183.828 14.772 184.705 14.632L186.539 14.366V14.114C186.539 13.75 186.455 13.47 186.287 13.274C186.119 13.078 185.825 12.98 185.405 12.98C185.097 12.98 184.85 13.0407 184.663 13.162C184.476 13.2833 184.332 13.442 184.229 13.638C184.154 13.7593 184.047 13.82 183.907 13.82H182.577C182.474 13.82 182.395 13.792 182.339 13.736C182.283 13.6707 182.26 13.596 182.269 13.512C182.269 13.3533 182.33 13.1667 182.451 12.952C182.572 12.7373 182.759 12.5273 183.011 12.322C183.263 12.1073 183.585 11.93 183.977 11.79C184.369 11.65 184.85 11.58 185.419 11.58C186.007 11.58 186.511 11.65 186.931 11.79C187.351 11.93 187.687 12.126 187.939 12.378C188.191 12.63 188.378 12.924 188.499 13.26C188.62 13.5867 188.681 13.9413 188.681 14.324V18.65C188.681 18.7527 188.648 18.8367 188.583 18.902C188.518 18.9673 188.434 19 188.331 19H186.959C186.866 19 186.786 18.9673 186.721 18.902C186.656 18.8367 186.623 18.7527 186.623 18.65V18.132C186.502 18.3093 186.338 18.4773 186.133 18.636C185.928 18.7853 185.68 18.9067 185.391 19C185.111 19.0933 184.78 19.14 184.397 19.14ZM184.957 17.684C185.265 17.684 185.54 17.6187 185.783 17.488C186.026 17.3573 186.217 17.1567 186.357 16.886C186.497 16.6153 186.567 16.2747 186.567 15.864V15.626L185.265 15.836C184.761 15.92 184.392 16.046 184.159 16.214C183.926 16.382 183.809 16.5873 183.809 16.83C183.809 17.0073 183.86 17.1613 183.963 17.292C184.075 17.4227 184.22 17.5207 184.397 17.586C184.574 17.6513 184.761 17.684 184.957 17.684ZM190.712 19C190.619 19 190.539 18.9673 190.474 18.902C190.409 18.8367 190.376 18.7527 190.376 18.65V12.07C190.376 11.9673 190.409 11.8833 190.474 11.818C190.539 11.7527 190.619 11.72 190.712 11.72H192.084C192.187 11.72 192.271 11.7527 192.336 11.818C192.401 11.8833 192.434 11.9673 192.434 12.07V12.616C192.677 12.3173 192.989 12.07 193.372 11.874C193.755 11.678 194.221 11.58 194.772 11.58C195.323 11.58 195.803 11.706 196.214 11.958C196.634 12.2007 196.961 12.56 197.194 13.036C197.437 13.5027 197.558 14.072 197.558 14.744V18.65C197.558 18.7527 197.521 18.8367 197.446 18.902C197.381 18.9673 197.301 19 197.208 19H195.724C195.621 19 195.537 18.9673 195.472 18.902C195.407 18.8367 195.374 18.7527 195.374 18.65V14.828C195.374 14.3333 195.253 13.9507 195.01 13.68C194.777 13.4 194.431 13.26 193.974 13.26C193.535 13.26 193.185 13.4 192.924 13.68C192.663 13.9507 192.532 14.3333 192.532 14.828V18.65C192.532 18.7527 192.499 18.8367 192.434 18.902C192.369 18.9673 192.289 19 192.196 19H190.712ZM202.652 22.08C201.961 22.08 201.387 21.9867 200.93 21.8C200.472 21.6227 200.108 21.4033 199.838 21.142C199.576 20.89 199.39 20.638 199.278 20.386C199.166 20.134 199.105 19.938 199.096 19.798C199.086 19.6953 199.119 19.6113 199.194 19.546C199.268 19.4807 199.352 19.448 199.446 19.448H200.944C201.028 19.448 201.098 19.4667 201.154 19.504C201.219 19.5507 201.27 19.6253 201.308 19.728C201.354 19.84 201.42 19.9567 201.504 20.078C201.588 20.2087 201.714 20.316 201.882 20.4C202.059 20.484 202.292 20.526 202.582 20.526C202.908 20.526 203.179 20.4793 203.394 20.386C203.608 20.2927 203.767 20.134 203.87 19.91C203.982 19.686 204.038 19.3827 204.038 19V18.062C203.814 18.3047 203.529 18.5053 203.184 18.664C202.848 18.8227 202.432 18.902 201.938 18.902C201.452 18.902 201.023 18.8273 200.65 18.678C200.286 18.5193 199.982 18.3 199.74 18.02C199.497 17.7307 199.31 17.3853 199.18 16.984C199.049 16.5827 198.974 16.13 198.956 15.626C198.946 15.374 198.946 15.1267 198.956 14.884C198.974 14.3987 199.049 13.9553 199.18 13.554C199.31 13.1527 199.497 12.8073 199.74 12.518C199.982 12.2193 200.286 11.9907 200.65 11.832C201.023 11.664 201.452 11.58 201.938 11.58C202.451 11.58 202.89 11.678 203.254 11.874C203.618 12.07 203.916 12.3127 204.15 12.602V12.07C204.15 11.9767 204.182 11.8973 204.248 11.832C204.313 11.7573 204.392 11.72 204.486 11.72H205.858C205.951 11.72 206.03 11.7573 206.096 11.832C206.17 11.8973 206.208 11.9767 206.208 12.07L206.222 18.804C206.222 19.504 206.086 20.0967 205.816 20.582C205.545 21.0673 205.144 21.436 204.612 21.688C204.089 21.9493 203.436 22.08 202.652 22.08ZM202.582 17.264C202.918 17.264 203.188 17.1893 203.394 17.04C203.608 16.8813 203.767 16.6853 203.87 16.452C203.972 16.2093 204.028 15.9573 204.038 15.696C204.047 15.5933 204.052 15.4487 204.052 15.262C204.052 15.066 204.047 14.9167 204.038 14.814C204.028 14.5527 203.972 14.3053 203.87 14.072C203.767 13.8293 203.608 13.6333 203.394 13.484C203.188 13.3347 202.918 13.26 202.582 13.26C202.227 13.26 201.947 13.3393 201.742 13.498C201.536 13.6473 201.387 13.848 201.294 14.1C201.2 14.352 201.144 14.6273 201.126 14.926C201.116 15.15 201.116 15.3693 201.126 15.584C201.144 15.892 201.2 16.172 201.294 16.424C201.387 16.676 201.536 16.8813 201.742 17.04C201.947 17.1893 202.227 17.264 202.582 17.264ZM211.234 19.14C210.16 19.14 209.306 18.8413 208.672 18.244C208.046 17.6467 207.715 16.7787 207.678 15.64C207.678 15.5653 207.678 15.4673 207.678 15.346C207.678 15.2153 207.678 15.1127 207.678 15.038C207.715 14.3193 207.878 13.7033 208.168 13.19C208.457 12.6673 208.863 12.2707 209.386 12C209.908 11.72 210.52 11.58 211.22 11.58C212.004 11.58 212.657 11.7433 213.18 12.07C213.712 12.3873 214.108 12.826 214.37 13.386C214.64 13.9367 214.776 14.5713 214.776 15.29V15.612C214.776 15.7053 214.738 15.7847 214.664 15.85C214.598 15.9153 214.519 15.948 214.426 15.948H209.848C209.848 15.9573 209.848 15.976 209.848 16.004C209.848 16.0227 209.848 16.0413 209.848 16.06C209.857 16.3587 209.913 16.634 210.016 16.886C210.128 17.1287 210.282 17.3247 210.478 17.474C210.683 17.6233 210.926 17.698 211.206 17.698C211.439 17.698 211.63 17.6653 211.78 17.6C211.929 17.5347 212.05 17.4553 212.144 17.362C212.246 17.2687 212.321 17.1893 212.368 17.124C212.452 17.0307 212.517 16.9747 212.564 16.956C212.62 16.928 212.704 16.914 212.816 16.914H214.272C214.365 16.914 214.44 16.942 214.496 16.998C214.561 17.0447 214.589 17.1147 214.58 17.208C214.57 17.3573 214.491 17.544 214.342 17.768C214.202 17.9827 213.992 18.1973 213.712 18.412C213.432 18.6173 213.082 18.79 212.662 18.93C212.251 19.07 211.775 19.14 211.234 19.14ZM209.848 14.674H212.592V14.646C212.592 14.31 212.536 14.0207 212.424 13.778C212.321 13.526 212.167 13.33 211.962 13.19C211.756 13.05 211.509 12.98 211.22 12.98C210.93 12.98 210.683 13.05 210.478 13.19C210.272 13.33 210.114 13.526 210.002 13.778C209.899 14.0207 209.848 14.31 209.848 14.646V14.674ZM216.525 19C216.422 19 216.338 18.9673 216.273 18.902C216.208 18.8367 216.175 18.7527 216.175 18.65V9.41C216.175 9.30733 216.208 9.22333 216.273 9.158C216.338 9.09267 216.422 9.06 216.525 9.06H217.925C218.018 9.06 218.098 9.09267 218.163 9.158C218.228 9.22333 218.261 9.30733 218.261 9.41V18.65C218.261 18.7527 218.228 18.8367 218.163 18.902C218.098 18.9673 218.018 19 217.925 19H216.525ZM223.362 19.14C222.588 19.14 221.939 19.014 221.416 18.762C220.894 18.5007 220.492 18.132 220.212 17.656C219.942 17.18 219.792 16.6247 219.764 15.99C219.755 15.8033 219.75 15.5933 219.75 15.36C219.75 15.1173 219.755 14.9073 219.764 14.73C219.792 14.086 219.951 13.5307 220.24 13.064C220.53 12.588 220.936 12.224 221.458 11.972C221.981 11.7107 222.616 11.58 223.362 11.58C224.1 11.58 224.73 11.7107 225.252 11.972C225.775 12.224 226.181 12.588 226.47 13.064C226.76 13.5307 226.918 14.086 226.946 14.73C226.965 14.9073 226.974 15.1173 226.974 15.36C226.974 15.5933 226.965 15.8033 226.946 15.99C226.918 16.6247 226.764 17.18 226.484 17.656C226.214 18.132 225.817 18.5007 225.294 18.762C224.772 19.014 224.128 19.14 223.362 19.14ZM223.362 17.6C223.82 17.6 224.165 17.46 224.398 17.18C224.632 16.8907 224.758 16.4707 224.776 15.92C224.786 15.78 224.79 15.5933 224.79 15.36C224.79 15.1267 224.786 14.94 224.776 14.8C224.758 14.2587 224.632 13.8433 224.398 13.554C224.165 13.2647 223.82 13.12 223.362 13.12C222.905 13.12 222.555 13.2647 222.312 13.554C222.079 13.8433 221.953 14.2587 221.934 14.8C221.925 14.94 221.92 15.1267 221.92 15.36C221.92 15.5933 221.925 15.78 221.934 15.92C221.953 16.4707 222.079 16.8907 222.312 17.18C222.555 17.46 222.905 17.6 223.362 17.6ZM231.855 22.08C231.164 22.08 230.59 21.9867 230.133 21.8C229.675 21.6227 229.311 21.4033 229.041 21.142C228.779 20.89 228.593 20.638 228.481 20.386C228.369 20.134 228.308 19.938 228.299 19.798C228.289 19.6953 228.322 19.6113 228.397 19.546C228.471 19.4807 228.555 19.448 228.649 19.448H230.147C230.231 19.448 230.301 19.4667 230.357 19.504C230.422 19.5507 230.473 19.6253 230.511 19.728C230.557 19.84 230.623 19.9567 230.707 20.078C230.791 20.2087 230.917 20.316 231.085 20.4C231.262 20.484 231.495 20.526 231.785 20.526C232.111 20.526 232.382 20.4793 232.597 20.386C232.811 20.2927 232.97 20.134 233.073 19.91C233.185 19.686 233.241 19.3827 233.241 19V18.062C233.017 18.3047 232.732 18.5053 232.387 18.664C232.051 18.8227 231.635 18.902 231.141 18.902C230.655 18.902 230.226 18.8273 229.853 18.678C229.489 18.5193 229.185 18.3 228.943 18.02C228.7 17.7307 228.513 17.3853 228.383 16.984C228.252 16.5827 228.177 16.13 228.159 15.626C228.149 15.374 228.149 15.1267 228.159 14.884C228.177 14.3987 228.252 13.9553 228.383 13.554C228.513 13.1527 228.7 12.8073 228.943 12.518C229.185 12.2193 229.489 11.9907 229.853 11.832C230.226 11.664 230.655 11.58 231.141 11.58C231.654 11.58 232.093 11.678 232.457 11.874C232.821 12.07 233.119 12.3127 233.353 12.602V12.07C233.353 11.9767 233.385 11.8973 233.451 11.832C233.516 11.7573 233.595 11.72 233.689 11.72H235.061C235.154 11.72 235.233 11.7573 235.299 11.832C235.373 11.8973 235.411 11.9767 235.411 12.07L235.425 18.804C235.425 19.504 235.289 20.0967 235.019 20.582C234.748 21.0673 234.347 21.436 233.815 21.688C233.292 21.9493 232.639 22.08 231.855 22.08ZM231.785 17.264C232.121 17.264 232.391 17.1893 232.597 17.04C232.811 16.8813 232.97 16.6853 233.073 16.452C233.175 16.2093 233.231 15.9573 233.241 15.696C233.25 15.5933 233.255 15.4487 233.255 15.262C233.255 15.066 233.25 14.9167 233.241 14.814C233.231 14.5527 233.175 14.3053 233.073 14.072C232.97 13.8293 232.811 13.6333 232.597 13.484C232.391 13.3347 232.121 13.26 231.785 13.26C231.43 13.26 231.15 13.3393 230.945 13.498C230.739 13.6473 230.59 13.848 230.497 14.1C230.403 14.352 230.347 14.6273 230.329 14.926C230.319 15.15 230.319 15.3693 230.329 15.584C230.347 15.892 230.403 16.172 230.497 16.424C230.59 16.676 230.739 16.8813 230.945 17.04C231.15 17.1893 231.43 17.264 231.785 17.264Z" fill="#27353F"/>
<path fill-rule="evenodd" clip-rule="evenodd" d="M133.966 6.64616L132.537 5.23077C132.227 4.92308 131.668 4.92308 131.357 5.23077L131.233 5.35384C130.922 5.66154 130.922 6.21539 131.233 6.52308L132.661 7.93846C132.972 8.24615 133.531 8.24615 133.842 7.93846L133.966 7.81538C134.276 7.50769 134.276 6.95385 133.966 6.64616ZM134.214 8.30769L137.32 5.23077C137.63 4.92308 138.189 4.92308 138.5 5.23077L138.624 5.35384C138.935 5.66154 138.935 6.21539 138.624 6.52308L135.519 9.6C135.208 9.9077 134.649 9.9077 134.339 9.6L134.214 9.47692C133.904 9.16923 133.904 8.61538 134.214 8.30769Z" fill="#37ABFF"/>
<path d="M10 9L4 15L10 21" stroke="#37ABFF" stroke-width="2" stroke-linecap="round"/>
<defs>
<clipPath id="clip0_101_37">
<rect width="36" height="32" fill="white" transform="translate(41)"/>
</clipPath>
</defs>
</svg>
